<mxfile host="65bd71144e">
    <diagram id="n_FQf2AKHFINR0Hc34nD" name="Page-1">
        <mxGraphModel dx="433" dy="956" grid="1" gridSize="10" guides="1" tooltips="1" connect="1" arrows="1" fold="1" page="1" pageScale="1" pageWidth="1654" pageHeight="1169" math="1" shadow="0">
            <root>
                <mxCell id="0"/>
                <mxCell id="1" parent="0"/>
                <mxCell id="3" style="edgeStyle=orthogonalEdgeStyle;rounded=0;orthogonalLoop=1;jettySize=auto;html=1;exitX=1;exitY=0;exitDx=0;exitDy=0;exitPerimeter=0;entryX=0.063;entryY=0.469;entryDx=0;entryDy=0;entryPerimeter=0;strokeWidth=2;fontSize=18;" parent="1" source="19" target="41" edge="1">
                    <mxGeometry relative="1" as="geometry">
                        <Array as="points">
                            <mxPoint x="970" y="672"/>
                        </Array>
                    </mxGeometry>
                </mxCell>
                <mxCell id="5" value="&lt;span style=&quot;font-size: 18px;&quot;&gt;PC&lt;/span&gt;" style="ellipse;whiteSpace=wrap;html=1;fontSize=18;" parent="1" vertex="1">
                    <mxGeometry x="765" y="130" width="40" height="40" as="geometry"/>
                </mxCell>
                <mxCell id="6" value="" style="verticalLabelPosition=bottom;align=center;html=1;verticalAlign=top;pointerEvents=1;dashed=0;shape=mxgraph.pid2valves.valve;valveType=ball;rotation=-45;fontSize=18;" parent="1" vertex="1">
                    <mxGeometry x="735" y="230" width="30" height="20" as="geometry"/>
                </mxCell>
                <mxCell id="7" style="edgeStyle=orthogonalEdgeStyle;rounded=0;orthogonalLoop=1;jettySize=auto;html=1;strokeWidth=2;dashed=1;fillColor=#a20025;strokeColor=#FF0000;exitX=0.5;exitY=0;exitDx=0;exitDy=0;exitPerimeter=0;entryX=1;entryY=0.5;entryDx=0;entryDy=0;fontSize=18;" parent="1" source="17" target="5" edge="1">
                    <mxGeometry relative="1" as="geometry">
                        <mxPoint x="930" y="150" as="targetPoint"/>
                    </mxGeometry>
                </mxCell>
                <mxCell id="8" style="edgeStyle=orthogonalEdgeStyle;rounded=0;orthogonalLoop=1;jettySize=auto;html=1;entryX=0.554;entryY=0.264;entryDx=0;entryDy=0;entryPerimeter=0;strokeWidth=2;dashed=1;fillColor=#a20025;strokeColor=#FF0000;exitX=0;exitY=0.5;exitDx=0;exitDy=0;fontSize=18;" parent="1" source="5" target="6" edge="1">
                    <mxGeometry relative="1" as="geometry">
                        <Array as="points">
                            <mxPoint x="710" y="150"/>
                            <mxPoint x="710" y="235"/>
                        </Array>
                        <mxPoint x="850" y="120" as="sourcePoint"/>
                    </mxGeometry>
                </mxCell>
                <mxCell id="14" value="" style="verticalLabelPosition=bottom;outlineConnect=0;align=center;dashed=0;html=1;verticalAlign=top;shape=mxgraph.pid2misc.column;columnType=tray;fontSize=18;" parent="1" vertex="1">
                    <mxGeometry x="578" y="352" width="110" height="300" as="geometry"/>
                </mxCell>
                <mxCell id="15" style="edgeStyle=orthogonalEdgeStyle;rounded=0;orthogonalLoop=1;jettySize=auto;html=1;strokeWidth=2;fontSize=18;" parent="1" target="19" edge="1">
                    <mxGeometry relative="1" as="geometry">
                        <Array as="points">
                            <mxPoint x="858" y="692"/>
                            <mxPoint x="858" y="692"/>
                        </Array>
                        <mxPoint x="818" y="692" as="sourcePoint"/>
                    </mxGeometry>
                </mxCell>
                <mxCell id="16" style="edgeStyle=orthogonalEdgeStyle;rounded=0;orthogonalLoop=1;jettySize=auto;html=1;entryX=0;entryY=0.5;entryDx=0;entryDy=0;strokeWidth=2;dashed=1;fillColor=#a20025;strokeColor=#FF0000;exitX=0.768;exitY=-0.005;exitDx=0;exitDy=0;exitPerimeter=0;fontSize=18;" parent="1" source="17" target="38" edge="1">
                    <mxGeometry relative="1" as="geometry">
                        <Array as="points">
                            <mxPoint x="851" y="210"/>
                        </Array>
                    </mxGeometry>
                </mxCell>
                <mxCell id="17" value="" style="shape=mxgraph.pid.vessels.pressurized_vessel;html=1;pointerEvents=1;align=center;verticalLabelPosition=bottom;verticalAlign=top;dashed=0;fontSize=18;" parent="1" vertex="1">
                    <mxGeometry x="790" y="250" width="80" height="60" as="geometry"/>
                </mxCell>
                <mxCell id="18" style="edgeStyle=orthogonalEdgeStyle;rounded=0;orthogonalLoop=1;jettySize=auto;html=1;entryX=0.124;entryY=0.5;entryDx=0;entryDy=0;entryPerimeter=0;fontSize=18;" parent="1" source="14" target="32" edge="1">
                    <mxGeometry relative="1" as="geometry">
                        <mxPoint x="680" y="240" as="targetPoint"/>
                        <Array as="points">
                            <mxPoint x="633" y="280"/>
                        </Array>
                    </mxGeometry>
                </mxCell>
                <mxCell id="19" value="" style="verticalLabelPosition=bottom;outlineConnect=0;align=center;dashed=0;html=1;verticalAlign=top;shape=mxgraph.pid.compressors.centrifugal_compressor;fontSize=18;" parent="1" vertex="1">
                    <mxGeometry x="878" y="672" width="40" height="40" as="geometry"/>
                </mxCell>
                <mxCell id="67" style="edgeStyle=orthogonalEdgeStyle;rounded=0;html=1;entryX=0;entryY=0.5;entryDx=0;entryDy=0;strokeColor=#FF0000;strokeWidth=2;dashed=1;fontSize=18;" parent="1" target="30" edge="1">
                    <mxGeometry relative="1" as="geometry">
                        <mxPoint x="400" y="502" as="sourcePoint"/>
                        <Array as="points">
                            <mxPoint x="400" y="450"/>
                        </Array>
                    </mxGeometry>
                </mxCell>
                <mxCell id="21" value="" style="verticalLabelPosition=bottom;align=center;html=1;verticalAlign=top;pointerEvents=1;dashed=0;shape=mxgraph.pid2valves.valve;valveType=ball;fontSize=18;" parent="1" vertex="1">
                    <mxGeometry x="435" y="492" width="30" height="20" as="geometry"/>
                </mxCell>
                <mxCell id="22" value="" style="shape=mxgraph.pid.heat_exchangers.reboiler;html=1;pointerEvents=1;align=center;verticalLabelPosition=bottom;verticalAlign=top;dashed=0;fontSize=18;" parent="1" vertex="1">
                    <mxGeometry x="740" y="667" width="110" height="50" as="geometry"/>
                </mxCell>
                <mxCell id="23" value="" style="verticalLabelPosition=bottom;outlineConnect=0;align=center;dashed=0;html=1;verticalAlign=top;shape=mxgraph.pid.compressors.centrifugal_compressor;rotation=90;fontSize=18;" parent="1" vertex="1">
                    <mxGeometry x="820" y="332" width="30" height="30" as="geometry"/>
                </mxCell>
                <mxCell id="24" value="" style="verticalLabelPosition=bottom;align=center;html=1;verticalAlign=top;pointerEvents=1;dashed=0;shape=mxgraph.pid2valves.valve;valveType=ball;fontSize=18;" parent="1" vertex="1">
                    <mxGeometry x="727" y="362" width="30" height="20" as="geometry"/>
                </mxCell>
                <mxCell id="58" style="edgeStyle=orthogonalEdgeStyle;html=1;strokeColor=default;strokeWidth=2;fontSize=18;" parent="1" source="25" edge="1">
                    <mxGeometry relative="1" as="geometry">
                        <mxPoint x="970" y="372" as="targetPoint"/>
                    </mxGeometry>
                </mxCell>
                <mxCell id="25" value="" style="verticalLabelPosition=bottom;align=center;html=1;verticalAlign=top;pointerEvents=1;dashed=0;shape=mxgraph.pid2valves.valve;valveType=ball;fontSize=18;" parent="1" vertex="1">
                    <mxGeometry x="888" y="362" width="30" height="20" as="geometry"/>
                </mxCell>
                <mxCell id="26" value="" style="endArrow=classic;html=1;rounded=0;exitX=-0.014;exitY=0.443;exitDx=0;exitDy=0;exitPerimeter=0;fontSize=18;" parent="1" source="24" edge="1">
                    <mxGeometry width="50" height="50" relative="1" as="geometry">
                        <mxPoint x="715.3" y="371.1500000000001" as="sourcePoint"/>
                        <mxPoint x="688" y="370.8600000000001" as="targetPoint"/>
                    </mxGeometry>
                </mxCell>
                <mxCell id="29" style="edgeStyle=orthogonalEdgeStyle;rounded=0;orthogonalLoop=1;jettySize=auto;html=1;entryX=0.01;entryY=0.5;entryDx=0;entryDy=0;entryPerimeter=0;strokeWidth=2;fontSize=18;" parent="1" target="23" edge="1">
                    <mxGeometry relative="1" as="geometry">
                        <mxPoint x="835" y="312" as="sourcePoint"/>
                        <Array as="points">
                            <mxPoint x="835" y="322"/>
                            <mxPoint x="835" y="322"/>
                        </Array>
                    </mxGeometry>
                </mxCell>
                <mxCell id="30" value="&lt;font style=&quot;font-size: 18px;&quot;&gt;FC&lt;/font&gt;" style="ellipse;whiteSpace=wrap;html=1;fontSize=18;" parent="1" vertex="1">
                    <mxGeometry x="430" y="430" width="40" height="40" as="geometry"/>
                </mxCell>
                <mxCell id="32" value="" style="shape=mxgraph.pid.heat_exchangers.condenser;html=1;pointerEvents=1;align=center;verticalLabelPosition=bottom;verticalAlign=top;dashed=0;movable=1;resizable=1;rotatable=1;deletable=1;editable=1;locked=0;connectable=1;fontSize=18;" parent="1" vertex="1">
                    <mxGeometry x="680" y="250" width="60" height="60" as="geometry"/>
                </mxCell>
                <mxCell id="33" style="edgeStyle=orthogonalEdgeStyle;rounded=0;orthogonalLoop=1;jettySize=auto;html=1;entryX=-0.021;entryY=0.494;entryDx=0;entryDy=0;entryPerimeter=0;strokeWidth=2;fontSize=18;" parent="1" source="32" target="17" edge="1">
                    <mxGeometry relative="1" as="geometry"/>
                </mxCell>
                <mxCell id="35" value="" style="shape=mxgraph.pid.heat_exchangers.heater;html=1;pointerEvents=1;align=center;verticalLabelPosition=bottom;verticalAlign=top;dashed=0;fontSize=18;" parent="1" vertex="1">
                    <mxGeometry x="650" y="672" width="60" height="60" as="geometry"/>
                </mxCell>
                <mxCell id="37" value="" style="verticalLabelPosition=bottom;align=center;html=1;verticalAlign=top;pointerEvents=1;dashed=0;shape=mxgraph.pid2valves.valve;valveType=ball;rotation=315;fontSize=18;" parent="1" vertex="1">
                    <mxGeometry x="623" y="734" width="30" height="20" as="geometry"/>
                </mxCell>
                <mxCell id="89" style="edgeStyle=orthogonalEdgeStyle;rounded=0;html=1;entryX=0.5;entryY=0;entryDx=0;entryDy=0;dashed=1;strokeColor=#FF0000;strokeWidth=2;fontSize=18;" parent="1" source="38" target="86" edge="1">
                    <mxGeometry relative="1" as="geometry">
                        <Array as="points">
                            <mxPoint x="903" y="100"/>
                            <mxPoint x="450" y="100"/>
                        </Array>
                    </mxGeometry>
                </mxCell>
                <mxCell id="38" value="&lt;span style=&quot;font-size: 18px;&quot;&gt;LC&lt;/span&gt;" style="ellipse;whiteSpace=wrap;html=1;fontSize=18;" parent="1" vertex="1">
                    <mxGeometry x="883" y="190" width="40" height="40" as="geometry"/>
                </mxCell>
                <mxCell id="39" style="edgeStyle=orthogonalEdgeStyle;rounded=0;orthogonalLoop=1;jettySize=auto;html=1;entryX=0.5;entryY=0;entryDx=0;entryDy=0;strokeWidth=2;dashed=1;fillColor=#a20025;strokeColor=#FF0000;fontSize=18;" parent="1" source="38" target="83" edge="1">
                    <mxGeometry relative="1" as="geometry"/>
                </mxCell>
                <mxCell id="57" style="edgeStyle=orthogonalEdgeStyle;html=1;strokeColor=default;strokeWidth=2;fontSize=18;" parent="1" source="41" edge="1">
                    <mxGeometry relative="1" as="geometry">
                        <mxPoint x="1017" y="670" as="targetPoint"/>
                    </mxGeometry>
                </mxCell>
                <mxCell id="41" value="" style="verticalLabelPosition=bottom;align=center;html=1;verticalAlign=top;pointerEvents=1;dashed=0;shape=mxgraph.pid2valves.valve;valveType=ball;fontSize=18;" parent="1" vertex="1">
                    <mxGeometry x="945" y="660" width="30" height="20" as="geometry"/>
                </mxCell>
                <mxCell id="45" value="" style="endArrow=classic;html=1;rounded=0;exitX=0.45;exitY=0;exitDx=0;exitDy=0;exitPerimeter=0;endSize=6;curved=0;strokeColor=default;strokeWidth=2;fontSize=18;" parent="1" source="22" edge="1">
                    <mxGeometry width="50" height="50" relative="1" as="geometry">
                        <mxPoint x="778" y="662" as="sourcePoint"/>
                        <mxPoint x="688" y="633.27" as="targetPoint"/>
                        <Array as="points">
                            <mxPoint x="790" y="632"/>
                        </Array>
                    </mxGeometry>
                </mxCell>
                <mxCell id="47" style="edgeStyle=orthogonalEdgeStyle;rounded=0;orthogonalLoop=1;jettySize=auto;html=1;entryX=0;entryY=0.682;entryDx=0;entryDy=0;entryPerimeter=0;exitX=0.876;exitY=0.5;exitDx=0;exitDy=0;exitPerimeter=0;endSize=6;curved=0;strokeWidth=2;fontSize=18;" parent="1" target="22" edge="1">
                    <mxGeometry relative="1" as="geometry">
                        <mxPoint x="728" y="830" as="targetPoint"/>
                        <mxPoint x="702.56" y="702" as="sourcePoint"/>
                        <Array as="points">
                            <mxPoint x="703" y="701"/>
                        </Array>
                    </mxGeometry>
                </mxCell>
                <mxCell id="48" style="edgeStyle=orthogonalEdgeStyle;rounded=0;orthogonalLoop=1;jettySize=auto;html=1;entryX=0.124;entryY=0.5;entryDx=0;entryDy=0;entryPerimeter=0;endSize=6;curved=0;strokeWidth=2;fontSize=18;" parent="1" source="14" edge="1">
                    <mxGeometry relative="1" as="geometry">
                        <mxPoint x="657.44" y="702" as="targetPoint"/>
                        <Array as="points">
                            <mxPoint x="633" y="702"/>
                        </Array>
                    </mxGeometry>
                </mxCell>
                <mxCell id="49" style="edgeStyle=orthogonalEdgeStyle;rounded=0;orthogonalLoop=1;jettySize=auto;html=1;dashed=1;endSize=6;curved=0;strokeColor=#FF0000;strokeWidth=2;exitX=0.5;exitY=0;exitDx=0;exitDy=0;entryX=0.476;entryY=0.889;entryDx=0;entryDy=0;entryPerimeter=0;fontSize=18;" parent="1" source="110" target="37" edge="1">
                    <mxGeometry relative="1" as="geometry">
                        <mxPoint x="643" y="790" as="targetPoint"/>
                        <mxPoint x="643" y="790" as="sourcePoint"/>
                        <Array as="points">
                            <mxPoint x="690" y="780"/>
                            <mxPoint x="643" y="780"/>
                        </Array>
                    </mxGeometry>
                </mxCell>
                <mxCell id="50" style="edgeStyle=orthogonalEdgeStyle;rounded=0;orthogonalLoop=1;jettySize=auto;html=1;entryX=0.507;entryY=0.24;entryDx=0;entryDy=0;entryPerimeter=0;dashed=1;endSize=6;curved=0;strokeColor=#FF0000;strokeWidth=2;fontSize=18;" parent="1" source="30" target="21" edge="1">
                    <mxGeometry relative="1" as="geometry"/>
                </mxCell>
                <mxCell id="54" value="" style="endArrow=classic;html=1;rounded=0;exitX=-0.014;exitY=0.443;exitDx=0;exitDy=0;exitPerimeter=0;strokeWidth=2;fontSize=18;" parent="1" edge="1">
                    <mxGeometry width="50" height="50" relative="1" as="geometry">
                        <mxPoint x="726.5799999999999" y="370.83000000000015" as="sourcePoint"/>
                        <mxPoint x="688" y="370.83000000000015" as="targetPoint"/>
                    </mxGeometry>
                </mxCell>
                <mxCell id="56" style="edgeStyle=orthogonalEdgeStyle;rounded=0;orthogonalLoop=1;jettySize=auto;html=1;entryX=0.124;entryY=0.5;entryDx=0;entryDy=0;entryPerimeter=0;strokeWidth=2;fontSize=18;" parent="1" edge="1">
                    <mxGeometry relative="1" as="geometry">
                        <mxPoint x="687.44" y="279.97" as="targetPoint"/>
                        <Array as="points">
                            <mxPoint x="633" y="279.97"/>
                        </Array>
                        <mxPoint x="633.0344827586209" y="351.97" as="sourcePoint"/>
                    </mxGeometry>
                </mxCell>
                <mxCell id="2" style="edgeStyle=orthogonalEdgeStyle;rounded=0;orthogonalLoop=1;jettySize=auto;html=1;entryX=1;entryY=0.5;entryDx=0;entryDy=0;dashed=1;endSize=6;curved=0;strokeColor=#FF0000;strokeWidth=2;fontSize=18;" parent="1" target="110" edge="1">
                    <mxGeometry relative="1" as="geometry">
                        <Array as="points">
                            <mxPoint x="764" y="820"/>
                        </Array>
                        <mxPoint x="764" y="633" as="sourcePoint"/>
                        <mxPoint x="643" y="830" as="targetPoint"/>
                    </mxGeometry>
                </mxCell>
                <mxCell id="66" style="edgeStyle=orthogonalEdgeStyle;html=1;strokeColor=default;strokeWidth=2;rounded=0;fontSize=18;" parent="1" edge="1">
                    <mxGeometry relative="1" as="geometry">
                        <mxPoint x="370" y="502" as="sourcePoint"/>
                        <mxPoint x="435" y="501.83" as="targetPoint"/>
                        <Array as="points">
                            <mxPoint x="435" y="502"/>
                        </Array>
                    </mxGeometry>
                </mxCell>
                <mxCell id="65" style="edgeStyle=orthogonalEdgeStyle;html=1;strokeColor=default;strokeWidth=2;rounded=0;fontSize=18;" parent="1" source="21" target="14" edge="1">
                    <mxGeometry relative="1" as="geometry"/>
                </mxCell>
                <mxCell id="88" style="edgeStyle=orthogonalEdgeStyle;html=1;entryX=0.497;entryY=0.124;entryDx=0;entryDy=0;entryPerimeter=0;rounded=0;dashed=1;strokeColor=#FF0000;strokeWidth=2;fontSize=18;" parent="1" source="83" target="25" edge="1">
                    <mxGeometry relative="1" as="geometry"/>
                </mxCell>
                <mxCell id="83" value="MIN" style="whiteSpace=wrap;html=1;fontSize=18;" parent="1" vertex="1">
                    <mxGeometry x="878" y="302" width="50" height="30" as="geometry"/>
                </mxCell>
                <mxCell id="103" style="edgeStyle=orthogonalEdgeStyle;rounded=0;html=1;entryX=0.5;entryY=0;entryDx=0;entryDy=0;dashed=1;strokeColor=#FF0000;strokeWidth=2;fontSize=18;" parent="1" source="86" target="30" edge="1">
                    <mxGeometry relative="1" as="geometry"/>
                </mxCell>
                <mxCell id="86" value="MIN" style="whiteSpace=wrap;html=1;fontSize=18;" parent="1" vertex="1">
                    <mxGeometry x="425" y="357" width="50" height="30" as="geometry"/>
                </mxCell>
                <mxCell id="91" style="edgeStyle=orthogonalEdgeStyle;rounded=0;html=1;entryX=0;entryY=0.5;entryDx=0;entryDy=0;dashed=1;strokeColor=#FF0000;strokeWidth=2;elbow=vertical;fontSize=18;" parent="1" source="14" target="95" edge="1">
                    <mxGeometry relative="1" as="geometry">
                        <Array as="points">
                            <mxPoint x="780" y="600"/>
                            <mxPoint x="780" y="532"/>
                        </Array>
                        <mxPoint x="860" y="575" as="sourcePoint"/>
                    </mxGeometry>
                </mxCell>
                <mxCell id="92" style="edgeStyle=orthogonalEdgeStyle;rounded=0;html=1;entryX=0.25;entryY=0;entryDx=0;entryDy=0;dashed=1;strokeColor=#FF0000;strokeWidth=2;elbow=vertical;fontSize=18;" parent="1" source="95" target="96" edge="1">
                    <mxGeometry relative="1" as="geometry"/>
                </mxCell>
                <mxCell id="93" value="L" style="edgeLabel;html=1;align=center;verticalAlign=middle;resizable=0;points=[];fontSize=18;" parent="92" vertex="1" connectable="0">
                    <mxGeometry x="-0.7464" relative="1" as="geometry">
                        <mxPoint x="-4" y="20" as="offset"/>
                    </mxGeometry>
                </mxCell>
                <mxCell id="100" style="edgeStyle=orthogonalEdgeStyle;rounded=0;html=1;entryX=1;entryY=0.5;entryDx=0;entryDy=0;dashed=1;strokeColor=#FF0000;strokeWidth=2;fontSize=18;" parent="1" source="95" target="86" edge="1">
                    <mxGeometry relative="1" as="geometry">
                        <Array as="points">
                            <mxPoint x="835" y="430"/>
                            <mxPoint x="530" y="430"/>
                            <mxPoint x="530" y="372"/>
                        </Array>
                    </mxGeometry>
                </mxCell>
                <mxCell id="95" value="&lt;font style=&quot;font-size: 18px;&quot;&gt;LC&lt;/font&gt;" style="ellipse;whiteSpace=wrap;html=1;fontSize=18;" parent="1" vertex="1">
                    <mxGeometry x="815" y="512" width="40" height="40" as="geometry"/>
                </mxCell>
                <mxCell id="99" style="edgeStyle=orthogonalEdgeStyle;rounded=0;html=1;entryX=0.567;entryY=0;entryDx=0;entryDy=0;entryPerimeter=0;dashed=1;strokeColor=#FF0000;strokeWidth=2;fontSize=18;" parent="1" source="96" target="41" edge="1">
                    <mxGeometry relative="1" as="geometry"/>
                </mxCell>
                <mxCell id="96" value="MIN" style="whiteSpace=wrap;html=1;fontSize=18;" parent="1" vertex="1">
                    <mxGeometry x="937" y="587" width="50" height="30" as="geometry"/>
                </mxCell>
                <mxCell id="102" value="H" style="text;html=1;align=center;verticalAlign=middle;resizable=0;points=[];autosize=1;strokeColor=none;fillColor=none;fontSize=18;" parent="1" vertex="1">
                    <mxGeometry x="838" y="460" width="40" height="40" as="geometry"/>
                </mxCell>
                <mxCell id="106" style="edgeStyle=orthogonalEdgeStyle;rounded=0;html=1;entryX=1;entryY=0.5;entryDx=0;entryDy=0;dashed=1;strokeColor=#FF0000;strokeWidth=2;fontSize=18;" parent="1" source="105" target="83" edge="1">
                    <mxGeometry relative="1" as="geometry"/>
                </mxCell>
                <mxCell id="105" value="&lt;span style=&quot;font-size: 18px;&quot;&gt;$$D_S$$&lt;/span&gt;" style="whiteSpace=wrap;html=1;fontSize=18;strokeColor=none;" parent="1" vertex="1">
                    <mxGeometry x="975" y="302" width="50" height="30" as="geometry"/>
                </mxCell>
                <mxCell id="108" style="edgeStyle=orthogonalEdgeStyle;rounded=0;html=1;entryX=0.75;entryY=0;entryDx=0;entryDy=0;dashed=1;strokeColor=#FF0000;strokeWidth=2;fontSize=18;" parent="1" source="107" target="96" edge="1">
                    <mxGeometry relative="1" as="geometry"/>
                </mxCell>
                <mxCell id="107" value="&lt;span style=&quot;font-size: 18px;&quot;&gt;$$B_S$$&lt;/span&gt;" style="whiteSpace=wrap;html=1;fontSize=18;strokeColor=none;" parent="1" vertex="1">
                    <mxGeometry x="990" y="517" width="50" height="30" as="geometry"/>
                </mxCell>
                <mxCell id="110" value="&lt;font style=&quot;font-size: 18px;&quot;&gt;FC&lt;/font&gt;" style="ellipse;whiteSpace=wrap;html=1;fontSize=18;" parent="1" vertex="1">
                    <mxGeometry x="670" y="800" width="40" height="40" as="geometry"/>
                </mxCell>
                <mxCell id="111" style="edgeStyle=orthogonalEdgeStyle;rounded=0;orthogonalLoop=1;jettySize=auto;html=1;entryX=1.047;entryY=0.43;entryDx=0;entryDy=0;entryPerimeter=0;exitX=1;exitY=0;exitDx=0;exitDy=0;exitPerimeter=0;strokeWidth=2;fontSize=18;" parent="1" edge="1">
                    <mxGeometry relative="1" as="geometry">
                        <mxPoint x="758.4100000000001" y="370.6" as="targetPoint"/>
                        <mxPoint x="850" y="362" as="sourcePoint"/>
                        <Array as="points">
                            <mxPoint x="850" y="371"/>
                            <mxPoint x="758" y="371"/>
                        </Array>
                    </mxGeometry>
                </mxCell>
                <mxCell id="112" style="edgeStyle=orthogonalEdgeStyle;rounded=0;orthogonalLoop=1;jettySize=auto;html=1;exitX=1;exitY=0;exitDx=0;exitDy=0;exitPerimeter=0;strokeWidth=2;fontSize=18;entryX=-0.013;entryY=0.45;entryDx=0;entryDy=0;entryPerimeter=0;" parent="1" edge="1">
                    <mxGeometry relative="1" as="geometry">
                        <mxPoint x="887.6100000000001" y="371" as="targetPoint"/>
                        <mxPoint x="850" y="362" as="sourcePoint"/>
                        <Array as="points">
                            <mxPoint x="850" y="371"/>
                        </Array>
                    </mxGeometry>
                </mxCell>
                <mxCell id="113" value="" style="edgeStyle=orthogonalEdgeStyle;orthogonalLoop=1;jettySize=auto;html=1;entryX=0;entryY=0.5;entryDx=0;entryDy=0;rounded=0;strokeColor=#FF0000;strokeWidth=2;dashed=1;exitX=1;exitY=0.5;exitDx=0;exitDy=0;" edge="1" parent="1" source="114" target="86">
                    <mxGeometry width="100" relative="1" as="geometry">
                        <mxPoint x="370" y="372" as="sourcePoint"/>
                        <mxPoint x="360" y="350" as="targetPoint"/>
                    </mxGeometry>
                </mxCell>
                <mxCell id="114" value="$$F_{S,MIN}$$" style="whiteSpace=wrap;html=1;fontSize=18;strokeColor=none;" vertex="1" parent="1">
                    <mxGeometry x="320" y="352" width="70" height="40" as="geometry"/>
                </mxCell>
            </root>
        </mxGraphModel>
    </diagram>
</mxfile>